{
 "cells": [
  {
   "cell_type": "code",
   "execution_count": 31,
   "metadata": {},
   "outputs": [],
   "source": [
    "import pandas as pd\n",
    "import os\n",
    "import subprocess\n",
    "import re"
   ]
  },
  {
   "cell_type": "code",
   "execution_count": null,
   "metadata": {},
   "outputs": [],
   "source": [
    "def get_columns_to_pause(df):\n",
    "    pattern = re.compile(r'^pause\\d+_[a-z]+$')\n",
    "    dummy = []\n",
    "    for column in df.columns:\n",
    "        if pattern.match(column):\n",
    "            dummy.append(column)\n",
    "    return dummy"
   ]
  },
  {
   "cell_type": "code",
   "execution_count": null,
   "metadata": {},
   "outputs": [],
   "source": [
    "def create_silent_audio(duration, output_file):\n",
    "    # Command to create silent audio with ffmpeg\n",
    "    command = [\n",
    "        'ffmpeg',\n",
    "        '-f', 'lavfi',\n",
    "        '-i', 'anullsrc=channel_layout=stereo:sample_rate=48000',\n",
    "        '-t', duration,\n",
    "        '-c:a', 'aac',\n",
    "        '-b:a', '191k',\n",
    "        output_file\n",
    "    ]\n",
    "\n",
    "    try:\n",
    "        subprocess.run(command, check=True)\n",
    "        print(f\"Silent audio file {output_file} created successfully.\")\n",
    "        \n",
    "    except subprocess.CalledProcessError as e:\n",
    "        print(f\"Error creating silent audio file: {e}\")"
   ]
  },
  {
   "cell_type": "code",
   "execution_count": 16,
   "metadata": {},
   "outputs": [],
   "source": [
    "def get_the_table_data():\n",
    "    for f in os.listdir():\n",
    "        if f.endswith(\".csv\"):\n",
    "                video_schnitt_df = pd.read_csv(f)\n",
    "                print(f\"Table {f} loaded succesfully\")\n",
    "                return video_schnitt_df\n",
    "    raise ValueError(\"There is no csv in this directory\")"
   ]
  },
  {
   "cell_type": "code",
   "execution_count": 17,
   "metadata": {},
   "outputs": [],
   "source": [
    "def clean_the_data(df):\n",
    "    df.columns = df.columns.str.lower()\n",
    "    df.columns = df.columns.str.replace(\" \", \"_\")\n",
    "    df.columns = df.columns.str.strip()\n",
    "    df = df.astype(str)\n",
    "    print(\"Table Columns cleaned\")\n",
    "    return df"
   ]
  },
  {
   "cell_type": "code",
   "execution_count": 18,
   "metadata": {},
   "outputs": [],
   "source": [
    "def get_standbild(input_file,output_file,cut_head):\n",
    "    \n",
    "    #creat timedelta and add 1 miliseconds\n",
    "    time_delta = pd.to_timedelta(cut_head)\n",
    "    new_time_delta = time_delta + pd.Timedelta(milliseconds=1)\n",
    "\n",
    "    #create dummy for calculation to transform data type back to datetype\n",
    "    dummy_date = pd.Timestamp('1900-01-01')\n",
    "    new_timestamp = dummy_date + new_time_delta\n",
    "\n",
    "    #get the new time back to wished str format\n",
    "    cut_tail = new_timestamp.strftime('%H:%M:%S.%f')[:-3]\n",
    "\n",
    "    # Construct the command\n",
    "    command = [\n",
    "        'ffmpeg',\n",
    "        '-i', input_file,\n",
    "        '-ss', cut_head,\n",
    "        '-to', cut_tail,\n",
    "        '-an', #audio no\n",
    "        '-c:v', 'libx264', output_file # libx264 to encode and copy to test (but that didnt work the last time)\n",
    "    ]\n",
    "\n",
    "    # Run the command\n",
    "    try:\n",
    "        subprocess.run(command, check=True)\n",
    "    except subprocess.CalledProcessError as e:\n",
    "        print(f\"An error occurred: {e}\")"
   ]
  },
  {
   "cell_type": "markdown",
   "metadata": {},
   "source": [
    "# Get file and clean it"
   ]
  },
  {
   "cell_type": "code",
   "execution_count": 19,
   "metadata": {},
   "outputs": [
    {
     "name": "stdout",
     "output_type": "stream",
     "text": [
      "Table Videoschnitt_Liste - Spaltennamen (1).csv loaded succesfully\n",
      "Table Columns cleaned\n"
     ]
    }
   ],
   "source": [
    "video_schnitt_df = get_the_table_data()\n",
    "video_schnitt_df = clean_the_data(video_schnitt_df)             "
   ]
  },
  {
   "cell_type": "code",
   "execution_count": 20,
   "metadata": {},
   "outputs": [
    {
     "data": {
      "text/html": [
       "<div>\n",
       "<style scoped>\n",
       "    .dataframe tbody tr th:only-of-type {\n",
       "        vertical-align: middle;\n",
       "    }\n",
       "\n",
       "    .dataframe tbody tr th {\n",
       "        vertical-align: top;\n",
       "    }\n",
       "\n",
       "    .dataframe thead th {\n",
       "        text-align: right;\n",
       "    }\n",
       "</style>\n",
       "<table border=\"1\" class=\"dataframe\">\n",
       "  <thead>\n",
       "    <tr style=\"text-align: right;\">\n",
       "      <th></th>\n",
       "      <th>dateiname</th>\n",
       "      <th>notiz</th>\n",
       "      <th>rausschneiden1_ab</th>\n",
       "      <th>rausschneiden1_bis</th>\n",
       "      <th>rausschneiden2_ab</th>\n",
       "      <th>rausschneiden2_bis</th>\n",
       "      <th>rausschneiden3_ab</th>\n",
       "      <th>rausschneiden3_bis</th>\n",
       "      <th>rausschneiden4_ab</th>\n",
       "      <th>standbild_bis</th>\n",
       "      <th>teilen1_bei</th>\n",
       "      <th>teilen2_bei</th>\n",
       "      <th>teilen3_bei</th>\n",
       "      <th>teilen4_bei</th>\n",
       "      <th>pause1_bei</th>\n",
       "      <th>pause1_dauer</th>\n",
       "      <th>pause2_bei</th>\n",
       "      <th>pause2_dauer</th>\n",
       "    </tr>\n",
       "  </thead>\n",
       "  <tbody>\n",
       "    <tr>\n",
       "      <th>0</th>\n",
       "      <td>Normalverteilung.mp4</td>\n",
       "      <td>nan</td>\n",
       "      <td>nan</td>\n",
       "      <td>nan</td>\n",
       "      <td>nan</td>\n",
       "      <td>nan</td>\n",
       "      <td>nan</td>\n",
       "      <td>nan</td>\n",
       "      <td>nan</td>\n",
       "      <td>00:01:00</td>\n",
       "      <td>00:01:30</td>\n",
       "      <td>00:02:40</td>\n",
       "      <td>00:04:00</td>\n",
       "      <td>00:04:30</td>\n",
       "      <td>nan</td>\n",
       "      <td>nan</td>\n",
       "      <td>nan</td>\n",
       "      <td>nan</td>\n",
       "    </tr>\n",
       "    <tr>\n",
       "      <th>1</th>\n",
       "      <td>ELR_Geradengleichung.mp4</td>\n",
       "      <td>nan</td>\n",
       "      <td>nan</td>\n",
       "      <td>00:02:30</td>\n",
       "      <td>00:03:00</td>\n",
       "      <td>nan</td>\n",
       "      <td>nan</td>\n",
       "      <td>nan</td>\n",
       "      <td>nan</td>\n",
       "      <td>nan</td>\n",
       "      <td>00:02:40</td>\n",
       "      <td>nan</td>\n",
       "      <td>nan</td>\n",
       "      <td>nan</td>\n",
       "      <td>nan</td>\n",
       "      <td>nan</td>\n",
       "      <td>nan</td>\n",
       "      <td>nan</td>\n",
       "    </tr>\n",
       "    <tr>\n",
       "      <th>2</th>\n",
       "      <td>ELR_Geradengleichung_Einleitung.mp4</td>\n",
       "      <td>nan</td>\n",
       "      <td>00:01:00</td>\n",
       "      <td>00:02:30</td>\n",
       "      <td>nan</td>\n",
       "      <td>nan</td>\n",
       "      <td>nan</td>\n",
       "      <td>nan</td>\n",
       "      <td>nan</td>\n",
       "      <td>00:00:30</td>\n",
       "      <td>00:03:00</td>\n",
       "      <td>00:04:00</td>\n",
       "      <td>nan</td>\n",
       "      <td>nan</td>\n",
       "      <td>nan</td>\n",
       "      <td>nan</td>\n",
       "      <td>nan</td>\n",
       "      <td>nan</td>\n",
       "    </tr>\n",
       "    <tr>\n",
       "      <th>3</th>\n",
       "      <td>Normalverteilung2.mp4</td>\n",
       "      <td>nan</td>\n",
       "      <td>00:01:00</td>\n",
       "      <td>00:02:30</td>\n",
       "      <td>00:03:00</td>\n",
       "      <td>00:03:30</td>\n",
       "      <td>nan</td>\n",
       "      <td>nan</td>\n",
       "      <td>nan</td>\n",
       "      <td>nan</td>\n",
       "      <td>nan</td>\n",
       "      <td>nan</td>\n",
       "      <td>nan</td>\n",
       "      <td>nan</td>\n",
       "      <td>nan</td>\n",
       "      <td>nan</td>\n",
       "      <td>nan</td>\n",
       "      <td>nan</td>\n",
       "    </tr>\n",
       "    <tr>\n",
       "      <th>4</th>\n",
       "      <td>nan</td>\n",
       "      <td>nan</td>\n",
       "      <td>nan</td>\n",
       "      <td>nan</td>\n",
       "      <td>nan</td>\n",
       "      <td>nan</td>\n",
       "      <td>nan</td>\n",
       "      <td>nan</td>\n",
       "      <td>nan</td>\n",
       "      <td>nan</td>\n",
       "      <td>nan</td>\n",
       "      <td>nan</td>\n",
       "      <td>nan</td>\n",
       "      <td>nan</td>\n",
       "      <td>nan</td>\n",
       "      <td>nan</td>\n",
       "      <td>nan</td>\n",
       "      <td>nan</td>\n",
       "    </tr>\n",
       "  </tbody>\n",
       "</table>\n",
       "</div>"
      ],
      "text/plain": [
       "                             dateiname notiz rausschneiden1_ab  \\\n",
       "0                 Normalverteilung.mp4   nan               nan   \n",
       "1             ELR_Geradengleichung.mp4   nan               nan   \n",
       "2  ELR_Geradengleichung_Einleitung.mp4   nan          00:01:00   \n",
       "3                Normalverteilung2.mp4   nan          00:01:00   \n",
       "4                                  nan   nan               nan   \n",
       "\n",
       "  rausschneiden1_bis rausschneiden2_ab rausschneiden2_bis rausschneiden3_ab  \\\n",
       "0                nan               nan                nan               nan   \n",
       "1           00:02:30          00:03:00                nan               nan   \n",
       "2           00:02:30               nan                nan               nan   \n",
       "3           00:02:30          00:03:00           00:03:30               nan   \n",
       "4                nan               nan                nan               nan   \n",
       "\n",
       "  rausschneiden3_bis rausschneiden4_ab standbild_bis teilen1_bei teilen2_bei  \\\n",
       "0                nan               nan      00:01:00    00:01:30    00:02:40   \n",
       "1                nan               nan           nan    00:02:40         nan   \n",
       "2                nan               nan      00:00:30    00:03:00    00:04:00   \n",
       "3                nan               nan           nan         nan         nan   \n",
       "4                nan               nan           nan         nan         nan   \n",
       "\n",
       "  teilen3_bei teilen4_bei pause1_bei pause1_dauer pause2_bei pause2_dauer  \n",
       "0    00:04:00    00:04:30        nan          nan        nan          nan  \n",
       "1         nan         nan        nan          nan        nan          nan  \n",
       "2         nan         nan        nan          nan        nan          nan  \n",
       "3         nan         nan        nan          nan        nan          nan  \n",
       "4         nan         nan        nan          nan        nan          nan  "
      ]
     },
     "execution_count": 20,
     "metadata": {},
     "output_type": "execute_result"
    }
   ],
   "source": [
    "video_schnitt_df"
   ]
  },
  {
   "cell_type": "code",
   "execution_count": null,
   "metadata": {},
   "outputs": [],
   "source": [
    "# get timestamp pause1_bei\n",
    "# create standbild\n",
    "# get timestamp pause1_duration\n",
    "# create silent audio for the duration\n",
    "# merge audio with standbild\n",
    "# add pause into the video at the right place"
   ]
  },
  {
   "cell_type": "code",
   "execution_count": 24,
   "metadata": {},
   "outputs": [],
   "source": [
    "def merge_audio_and_video(video_file,audio_file,output_file):\n",
    "    #Construct command\n",
    "    command = ['ffmpeg',\n",
    "               '-i', video_file,\n",
    "               '-i', audio_file,\n",
    "               '-c:v', 'libx264', # needs to stay libx264\n",
    "               '-c:a', 'copy', output_file\n",
    "               ]\n",
    "    # Run the command\n",
    "    try:\n",
    "        subprocess.run(command, check=True)\n",
    "    except subprocess.CalledProcessError as e:\n",
    "        print(f\"An error occurred: {e}\")"
   ]
  },
  {
   "cell_type": "code",
   "execution_count": 33,
   "metadata": {},
   "outputs": [
    {
     "data": {
      "text/plain": [
       "['pause1_bei', 'pause1_dauer', 'pause2_bei', 'pause2_dauer']"
      ]
     },
     "execution_count": 33,
     "metadata": {},
     "output_type": "execute_result"
    }
   ],
   "source": [
    "get_columns_to_pause(video_schnitt_df)"
   ]
  },
  {
   "cell_type": "code",
   "execution_count": 25,
   "metadata": {},
   "outputs": [
    {
     "name": "stderr",
     "output_type": "stream",
     "text": [
      "ffmpeg version 6.0 Copyright (c) 2000-2023 the FFmpeg developers\n",
      "  built with Apple clang version 14.0.0 (clang-1400.0.29.202)\n",
      "  configuration: --prefix=/usr/local/Cellar/ffmpeg/6.0_1 --enable-shared --enable-pthreads --enable-version3 --cc=clang --host-cflags= --host-ldflags= --enable-ffplay --enable-gnutls --enable-gpl --enable-libaom --enable-libaribb24 --enable-libbluray --enable-libdav1d --enable-libjxl --enable-libmp3lame --enable-libopus --enable-librav1e --enable-librist --enable-librubberband --enable-libsnappy --enable-libsrt --enable-libsvtav1 --enable-libtesseract --enable-libtheora --enable-libvidstab --enable-libvmaf --enable-libvorbis --enable-libvpx --enable-libwebp --enable-libx264 --enable-libx265 --enable-libxml2 --enable-libxvid --enable-lzma --enable-libfontconfig --enable-libfreetype --enable-frei0r --enable-libass --enable-libopencore-amrnb --enable-libopencore-amrwb --enable-libopenjpeg --enable-libspeex --enable-libsoxr --enable-libzmq --enable-libzimg --disable-libjack --disable-indev=jack --enable-videotoolbox --enable-audiotoolbox\n",
      "  libavutil      58.  2.100 / 58.  2.100\n",
      "  libavcodec     60.  3.100 / 60.  3.100\n",
      "  libavformat    60.  3.100 / 60.  3.100\n",
      "  libavdevice    60.  1.100 / 60.  1.100\n",
      "  libavfilter     9.  3.100 /  9.  3.100\n",
      "  libswscale      7.  1.100 /  7.  1.100\n",
      "  libswresample   4. 10.100 /  4. 10.100\n",
      "  libpostproc    57.  1.100 / 57.  1.100\n",
      "Input #0, mov,mp4,m4a,3gp,3g2,mj2, from 'Normalverteilung.mp4':\n",
      "  Metadata:\n",
      "    major_brand     : isom\n",
      "    minor_version   : 512\n",
      "    compatible_brands: isomiso2avc1mp41\n",
      "    encoder         : Lavf60.3.100\n",
      "  Duration: 00:05:00.02, start: 0.000000, bitrate: 251 kb/s\n",
      "  Stream #0:0[0x1](und): Video: h264 (High) (avc1 / 0x31637661), yuv420p(tv, bt709, progressive), 1920x1080 [SAR 1:1 DAR 16:9], 51 kb/s, 27.21 fps, 30 tbr, 15360 tbn (default)\n",
      "    Metadata:\n",
      "      handler_name    : VideoHandler\n",
      "      vendor_id       : [0][0][0][0]\n",
      "      encoder         : Lavc60.3.100 libx264\n",
      "  Stream #0:1[0x2](und): Audio: aac (LC) (mp4a / 0x6134706D), 48000 Hz, stereo, fltp, 191 kb/s (default)\n",
      "    Metadata:\n",
      "      handler_name    : SoundHandler\n",
      "      vendor_id       : [0][0][0][0]\n",
      "Stream mapping:\n",
      "  Stream #0:0 -> #0:0 (h264 (native) -> h264 (libx264))\n",
      "Press [q] to stop, [?] for help\n",
      "[libx264 @ 0x7fc1bc72a440] using SAR=1/1\n",
      "[libx264 @ 0x7fc1bc72a440] using cpu capabilities: MMX2 SSE2Fast SSSE3 SSE4.2 AVX FMA3 BMI2 AVX2\n",
      "[libx264 @ 0x7fc1bc72a440] profile High, level 4.0, 4:2:0, 8-bit\n",
      "[libx264 @ 0x7fc1bc72a440] 264 - core 164 r3108 31e19f9 - H.264/MPEG-4 AVC codec - Copyleft 2003-2023 - http://www.videolan.org/x264.html - options: cabac=1 ref=3 deblock=1:0:0 analyse=0x3:0x113 me=hex subme=7 psy=1 psy_rd=1.00:0.00 mixed_ref=1 me_range=16 chroma_me=1 trellis=1 8x8dct=1 cqm=0 deadzone=21,11 fast_pskip=1 chroma_qp_offset=-2 threads=6 lookahead_threads=1 sliced_threads=0 nr=0 decimate=1 interlaced=0 bluray_compat=0 constrained_intra=0 bframes=3 b_pyramid=2 b_adapt=1 b_bias=0 direct=1 weightb=1 open_gop=0 weightp=2 keyint=250 keyint_min=25 scenecut=40 intra_refresh=0 rc_lookahead=40 rc=crf mbtree=1 crf=23.0 qcomp=0.60 qpmin=0 qpmax=69 qpstep=4 ip_ratio=1.40 aq=1:1.00\n",
      "Output #0, mp4, to 'standbild.mp4':\n",
      "  Metadata:\n",
      "    major_brand     : isom\n",
      "    minor_version   : 512\n",
      "    compatible_brands: isomiso2avc1mp41\n",
      "    encoder         : Lavf60.3.100\n",
      "  Stream #0:0(und): Video: h264 (avc1 / 0x31637661), yuv420p(tv, bt709, progressive), 1920x1080 [SAR 1:1 DAR 16:9], q=2-31, 30 fps, 15360 tbn (default)\n",
      "    Metadata:\n",
      "      handler_name    : VideoHandler\n",
      "      vendor_id       : [0][0][0][0]\n",
      "      encoder         : Lavc60.3.100 libx264\n",
      "    Side data:\n",
      "      cpb: bitrate max/min/avg: 0/0/0 buffer size: 0 vbv_delay: N/A\n",
      "frame=    1 fps=0.3 q=29.0 Lsize=      15kB time=00:00:00.00 bitrate=N/A speed=   0x    eed=N/A    \n",
      "video:14kB audio:0kB subtitle:0kB other streams:0kB global headers:0kB muxing overhead: 6.083034%\n",
      "[libx264 @ 0x7fc1bc72a440] frame I:1     Avg QP:17.20  size: 13498\n",
      "[libx264 @ 0x7fc1bc72a440] mb I  I16..4: 73.4% 20.9%  5.7%\n",
      "[libx264 @ 0x7fc1bc72a440] 8x8 transform intra:20.9%\n",
      "[libx264 @ 0x7fc1bc72a440] coded y,uvDC,uvAC intra: 4.0% 0.0% 0.0%\n",
      "[libx264 @ 0x7fc1bc72a440] i16 v,h,dc,p: 96%  2%  2%  0%\n",
      "[libx264 @ 0x7fc1bc72a440] i8 v,h,dc,ddl,ddr,vr,hd,vl,hu: 74%  4% 22%  0%  0%  0%  0%  0%  0%\n",
      "[libx264 @ 0x7fc1bc72a440] i4 v,h,dc,ddl,ddr,vr,hd,vl,hu: 55% 13%  7%  3%  4%  5%  5%  4%  4%\n",
      "[libx264 @ 0x7fc1bc72a440] i8c dc,h,v,p: 100%  0%  0%  0%\n",
      "[libx264 @ 0x7fc1bc72a440] kb/s:3239.52\n"
     ]
    }
   ],
   "source": [
    "get_standbild(\"Normalverteilung.mp4\",\"standbild.mp4\",\"00:01:00\")"
   ]
  },
  {
   "cell_type": "code",
   "execution_count": 27,
   "metadata": {},
   "outputs": [
    {
     "name": "stderr",
     "output_type": "stream",
     "text": [
      "ffmpeg version 6.0 Copyright (c) 2000-2023 the FFmpeg developers\n",
      "  built with Apple clang version 14.0.0 (clang-1400.0.29.202)\n",
      "  configuration: --prefix=/usr/local/Cellar/ffmpeg/6.0_1 --enable-shared --enable-pthreads --enable-version3 --cc=clang --host-cflags= --host-ldflags= --enable-ffplay --enable-gnutls --enable-gpl --enable-libaom --enable-libaribb24 --enable-libbluray --enable-libdav1d --enable-libjxl --enable-libmp3lame --enable-libopus --enable-librav1e --enable-librist --enable-librubberband --enable-libsnappy --enable-libsrt --enable-libsvtav1 --enable-libtesseract --enable-libtheora --enable-libvidstab --enable-libvmaf --enable-libvorbis --enable-libvpx --enable-libwebp --enable-libx264 --enable-libx265 --enable-libxml2 --enable-libxvid --enable-lzma --enable-libfontconfig --enable-libfreetype --enable-frei0r --enable-libass --enable-libopencore-amrnb --enable-libopencore-amrwb --enable-libopenjpeg --enable-libspeex --enable-libsoxr --enable-libzmq --enable-libzimg --disable-libjack --disable-indev=jack --enable-videotoolbox --enable-audiotoolbox\n",
      "  libavutil      58.  2.100 / 58.  2.100\n",
      "  libavcodec     60.  3.100 / 60.  3.100\n",
      "  libavformat    60.  3.100 / 60.  3.100\n",
      "  libavdevice    60.  1.100 / 60.  1.100\n",
      "  libavfilter     9.  3.100 /  9.  3.100\n",
      "  libswscale      7.  1.100 /  7.  1.100\n",
      "  libswresample   4. 10.100 /  4. 10.100\n",
      "  libpostproc    57.  1.100 / 57.  1.100\n",
      "Input #0, lavfi, from 'anullsrc=channel_layout=stereo:sample_rate=48000':\n",
      "  Duration: N/A, start: 0.000000, bitrate: 768 kb/s\n",
      "  Stream #0:0: Audio: pcm_u8, 48000 Hz, stereo, u8, 768 kb/s\n",
      "Stream mapping:\n",
      "  Stream #0:0 -> #0:0 (pcm_u8 (native) -> aac (native))\n",
      "Press [q] to stop, [?] for help\n",
      "Output #0, mp4, to 'audio.mp4':\n",
      "  Metadata:\n",
      "    encoder         : Lavf60.3.100\n",
      "  Stream #0:0: Audio: aac (LC) (mp4a / 0x6134706D), 48000 Hz, stereo, fltp, 191 kb/s\n",
      "    Metadata:\n",
      "      encoder         : Lavc60.3.100 aac\n",
      "size=       0kB time=-577014:32:22.77 bitrate=  -0.0kbits/s speed=N/A    \r"
     ]
    },
    {
     "name": "stdout",
     "output_type": "stream",
     "text": [
      "Silent audio file audio.mp4 created successfully.\n"
     ]
    },
    {
     "name": "stderr",
     "output_type": "stream",
     "text": [
      "size=      15kB time=00:00:29.99 bitrate=   4.0kbits/s speed=51.8x    \n",
      "video:0kB audio:8kB subtitle:0kB other streams:0kB global headers:0kB muxing overhead: 75.638321%\n",
      "[aac @ 0x7fceeb72b580] Qavg: 65536.000\n"
     ]
    }
   ],
   "source": [
    "create_silent_audio(\"00:00:30\",\"audio.mp4\")"
   ]
  },
  {
   "cell_type": "code",
   "execution_count": 28,
   "metadata": {},
   "outputs": [
    {
     "name": "stderr",
     "output_type": "stream",
     "text": [
      "ffmpeg version 6.0 Copyright (c) 2000-2023 the FFmpeg developers\n",
      "  built with Apple clang version 14.0.0 (clang-1400.0.29.202)\n",
      "  configuration: --prefix=/usr/local/Cellar/ffmpeg/6.0_1 --enable-shared --enable-pthreads --enable-version3 --cc=clang --host-cflags= --host-ldflags= --enable-ffplay --enable-gnutls --enable-gpl --enable-libaom --enable-libaribb24 --enable-libbluray --enable-libdav1d --enable-libjxl --enable-libmp3lame --enable-libopus --enable-librav1e --enable-librist --enable-librubberband --enable-libsnappy --enable-libsrt --enable-libsvtav1 --enable-libtesseract --enable-libtheora --enable-libvidstab --enable-libvmaf --enable-libvorbis --enable-libvpx --enable-libwebp --enable-libx264 --enable-libx265 --enable-libxml2 --enable-libxvid --enable-lzma --enable-libfontconfig --enable-libfreetype --enable-frei0r --enable-libass --enable-libopencore-amrnb --enable-libopencore-amrwb --enable-libopenjpeg --enable-libspeex --enable-libsoxr --enable-libzmq --enable-libzimg --disable-libjack --disable-indev=jack --enable-videotoolbox --enable-audiotoolbox\n",
      "  libavutil      58.  2.100 / 58.  2.100\n",
      "  libavcodec     60.  3.100 / 60.  3.100\n",
      "  libavformat    60.  3.100 / 60.  3.100\n",
      "  libavdevice    60.  1.100 / 60.  1.100\n",
      "  libavfilter     9.  3.100 /  9.  3.100\n",
      "  libswscale      7.  1.100 /  7.  1.100\n",
      "  libswresample   4. 10.100 /  4. 10.100\n",
      "  libpostproc    57.  1.100 / 57.  1.100\n",
      "Input #0, mov,mp4,m4a,3gp,3g2,mj2, from 'standbild.mp4':\n",
      "  Metadata:\n",
      "    major_brand     : isom\n",
      "    minor_version   : 512\n",
      "    compatible_brands: isomiso2avc1mp41\n",
      "    encoder         : Lavf60.3.100\n",
      "  Duration: 00:00:00.03, start: 0.000000, bitrate: 3612 kb/s\n",
      "  Stream #0:0[0x1](und): Video: h264 (High) (avc1 / 0x31637661), yuv420p(tv, bt709, progressive), 1920x1080 [SAR 1:1 DAR 16:9], 3405 kb/s, 30 fps, 30 tbr, 15360 tbn (default)\n",
      "    Metadata:\n",
      "      handler_name    : VideoHandler\n",
      "      vendor_id       : [0][0][0][0]\n",
      "      encoder         : Lavc60.3.100 libx264\n",
      "Input #1, mov,mp4,m4a,3gp,3g2,mj2, from 'audio.mp4':\n",
      "  Metadata:\n",
      "    major_brand     : isom\n",
      "    minor_version   : 512\n",
      "    compatible_brands: isomiso2mp41\n",
      "    encoder         : Lavf60.3.100\n",
      "  Duration: 00:00:30.00, start: 0.000000, bitrate: 3 kb/s\n",
      "  Stream #1:0[0x1](und): Audio: aac (LC) (mp4a / 0x6134706D), 48000 Hz, stereo, fltp, 2 kb/s (default)\n",
      "    Metadata:\n",
      "      handler_name    : SoundHandler\n",
      "      vendor_id       : [0][0][0][0]\n",
      "Stream mapping:\n",
      "  Stream #0:0 -> #0:0 (h264 (native) -> h264 (libx264))\n",
      "  Stream #1:0 -> #0:1 (copy)\n",
      "Press [q] to stop, [?] for help\n",
      "[libx264 @ 0x7fcc0a90dec0] using SAR=1/1\n",
      "[libx264 @ 0x7fcc0a90dec0] using cpu capabilities: MMX2 SSE2Fast SSSE3 SSE4.2 AVX FMA3 BMI2 AVX2\n",
      "[libx264 @ 0x7fcc0a90dec0] profile High, level 4.0, 4:2:0, 8-bit\n",
      "[libx264 @ 0x7fcc0a90dec0] 264 - core 164 r3108 31e19f9 - H.264/MPEG-4 AVC codec - Copyleft 2003-2023 - http://www.videolan.org/x264.html - options: cabac=1 ref=3 deblock=1:0:0 analyse=0x3:0x113 me=hex subme=7 psy=1 psy_rd=1.00:0.00 mixed_ref=1 me_range=16 chroma_me=1 trellis=1 8x8dct=1 cqm=0 deadzone=21,11 fast_pskip=1 chroma_qp_offset=-2 threads=6 lookahead_threads=1 sliced_threads=0 nr=0 decimate=1 interlaced=0 bluray_compat=0 constrained_intra=0 bframes=3 b_pyramid=2 b_adapt=1 b_bias=0 direct=1 weightb=1 open_gop=0 weightp=2 keyint=250 keyint_min=25 scenecut=40 intra_refresh=0 rc_lookahead=40 rc=crf mbtree=1 crf=23.0 qcomp=0.60 qpmin=0 qpmax=69 qpstep=4 ip_ratio=1.40 aq=1:1.00\n",
      "Output #0, mp4, to 'merged.mp4':\n",
      "  Metadata:\n",
      "    major_brand     : isom\n",
      "    minor_version   : 512\n",
      "    compatible_brands: isomiso2avc1mp41\n",
      "    encoder         : Lavf60.3.100\n",
      "  Stream #0:0(und): Video: h264 (avc1 / 0x31637661), yuv420p(tv, bt709, progressive), 1920x1080 [SAR 1:1 DAR 16:9], q=2-31, 30 fps, 15360 tbn (default)\n",
      "    Metadata:\n",
      "      handler_name    : VideoHandler\n",
      "      vendor_id       : [0][0][0][0]\n",
      "      encoder         : Lavc60.3.100 libx264\n",
      "    Side data:\n",
      "      cpb: bitrate max/min/avg: 0/0/0 buffer size: 0 vbv_delay: N/A\n",
      "  Stream #0:1(und): Audio: aac (LC) (mp4a / 0x6134706D), 48000 Hz, stereo, fltp, 2 kb/s (default)\n",
      "    Metadata:\n",
      "      handler_name    : SoundHandler\n",
      "      vendor_id       : [0][0][0][0]\n",
      "frame=    1 fps=0.0 q=29.0 Lsize=      29kB time=00:00:29.99 bitrate=   8.0kbits/s speed= 163x     \n",
      "video:14kB audio:8kB subtitle:0kB other streams:0kB global headers:0kB muxing overhead: 31.119511%\n",
      "[libx264 @ 0x7fcc0a90dec0] frame I:1     Avg QP:31.22  size: 13524\n",
      "[libx264 @ 0x7fcc0a90dec0] mb I  I16..4: 13.5% 80.8%  5.7%\n",
      "[libx264 @ 0x7fcc0a90dec0] 8x8 transform intra:80.8%\n",
      "[libx264 @ 0x7fcc0a90dec0] coded y,uvDC,uvAC intra: 4.0% 0.0% 0.0%\n",
      "[libx264 @ 0x7fcc0a90dec0] i16 v,h,dc,p: 83%  6% 11%  0%\n",
      "[libx264 @ 0x7fcc0a90dec0] i8 v,h,dc,ddl,ddr,vr,hd,vl,hu: 92%  2%  6%  0%  0%  0%  0%  0%  0%\n",
      "[libx264 @ 0x7fcc0a90dec0] i4 v,h,dc,ddl,ddr,vr,hd,vl,hu: 53% 13%  9%  3%  4%  5%  5%  4%  4%\n",
      "[libx264 @ 0x7fcc0a90dec0] i8c dc,h,v,p: 100%  0%  0%  0%\n",
      "[libx264 @ 0x7fcc0a90dec0] kb/s:3245.76\n"
     ]
    }
   ],
   "source": [
    "merge_audio_and_video(\"standbild.mp4\",\"audio.mp4\",\"merged.mp4\")"
   ]
  }
 ],
 "metadata": {
  "kernelspec": {
   "display_name": "cut_env",
   "language": "python",
   "name": "python3"
  },
  "language_info": {
   "codemirror_mode": {
    "name": "ipython",
    "version": 3
   },
   "file_extension": ".py",
   "mimetype": "text/x-python",
   "name": "python",
   "nbconvert_exporter": "python",
   "pygments_lexer": "ipython3",
   "version": "3.12.0"
  }
 },
 "nbformat": 4,
 "nbformat_minor": 2
}
